<svg xmlns="http://www.w3.org/2000/svg" width="150" height="50" viewBox="0 0 150 50">
  <g fill="none" fill-rule="evenodd">
    <path fill="#4CAF50" d="M30,10 C35.5228475,10 40,14.4771525 40,20 C40,25.5228475 35.5228475,30 30,30 C24.4771525,30 20,25.5228475 20,20 C20,14.4771525 24.4771525,10 30,10 Z M30,15 C27.2385763,15 25,17.2385763 25,20 C25,22.7614237 27.2385763,25 30,25 C32.7614237,25 35,22.7614237 35,20 C35,17.2385763 32.7614237,15 30,15 Z"/>
    <path fill="#4CAF50" d="M30,5 C38.2842712,5 45,11.7157288 45,20 C45,28.2842712 38.2842712,35 30,35 C21.7157288,35 15,28.2842712 15,20 C15,11.7157288 21.7157288,5 30,5 Z M30,10 C24.4771525,10 20,14.4771525 20,20 C20,25.5228475 24.4771525,30 30,30 C35.5228475,30 40,25.5228475 40,20 C40,14.4771525 35.5228475,10 30,10 Z"/>
    <path fill="#FFFFFF" d="M60,15 L65,15 L65,35 L60,35 L60,15 Z M70,15 L75,15 L75,35 L70,35 L70,15 Z M80,15 L95,15 L95,20 L85,20 L85,22.5 L93,22.5 L93,27.5 L85,27.5 L85,30 L95,30 L95,35 L80,35 L80,15 Z M100,15 L105,15 L105,30 L115,30 L115,35 L100,35 L100,15 Z M120,15 L125,15 L125,22.5 L130,22.5 L130,15 L135,15 L135,35 L130,35 L130,27.5 L125,27.5 L125,35 L120,35 L120,15 Z"/>
    <text font-family="Arial" font-size="8" fill="#CCCCCC" transform="translate(20, 40)">
      A Leading Software Company
    </text>
  </g>
</svg>
